<svg xmlns="http://www.w3.org/2000/svg" width="400" height="272">
  <rect width="400" height="272" rx="8" fill="#fff" stroke="#e0e0e0" stroke-width="1"/>
  <text x="16" y="33" fill="#333" font-size="12" font-family="sans-serif">PHP</text>
  <rect x="126" y="23" width="203" height="10" rx="5" fill="#e0e0e0"/>
  <rect x="126" y="23" width="68.4" height="10" rx="5" fill="#4a9eff"/>
  <text x="337" y="33" fill="#666" font-size="11" font-family="sans-serif">33.7%</text>
  <text x="16" y="57" fill="#333" font-size="12" font-family="sans-serif">Blade</text>
  <rect x="126" y="47" width="203" height="10" rx="5" fill="#e0e0e0"/>
  <rect x="126" y="47" width="44.7" height="10" rx="5" fill="#4a9eff"/>
  <text x="337" y="57" fill="#666" font-size="11" font-family="sans-serif">22.0%</text>
  <text x="16" y="81" fill="#333" font-size="12" font-family="sans-serif">TypeScript</text>
  <rect x="126" y="71" width="203" height="10" rx="5" fill="#e0e0e0"/>
  <rect x="126" y="71" width="26.0" height="10" rx="5" fill="#4a9eff"/>
  <text x="337" y="81" fill="#666" font-size="11" font-family="sans-serif">12.8%</text>
  <text x="16" y="105" fill="#333" font-size="12" font-family="sans-serif">Vue</text>
  <rect x="126" y="95" width="203" height="10" rx="5" fill="#e0e0e0"/>
  <rect x="126" y="95" width="13.6" height="10" rx="5" fill="#4a9eff"/>
  <text x="337" y="105" fill="#666" font-size="11" font-family="sans-serif">6.7%</text>
  <text x="16" y="129" fill="#333" font-size="12" font-family="sans-serif">Ruby</text>
  <rect x="126" y="119" width="203" height="10" rx="5" fill="#e0e0e0"/>
  <rect x="126" y="119" width="12.6" height="10" rx="5" fill="#4a9eff"/>
  <text x="337" y="129" fill="#666" font-size="11" font-family="sans-serif">6.2%</text>
  <text x="16" y="153" fill="#333" font-size="12" font-family="sans-serif">HTML</text>
  <rect x="126" y="143" width="203" height="10" rx="5" fill="#e0e0e0"/>
  <rect x="126" y="143" width="8.5" height="10" rx="5" fill="#4a9eff"/>
  <text x="337" y="153" fill="#666" font-size="11" font-family="sans-serif">4.2%</text>
  <text x="16" y="177" fill="#333" font-size="12" font-family="sans-serif">Astro</text>
  <rect x="126" y="167" width="203" height="10" rx="5" fill="#e0e0e0"/>
  <rect x="126" y="167" width="6.7" height="10" rx="5" fill="#4a9eff"/>
  <text x="337" y="177" fill="#666" font-size="11" font-family="sans-serif">3.3%</text>
  <text x="16" y="201" fill="#333" font-size="12" font-family="sans-serif">Python</text>
  <rect x="126" y="191" width="203" height="10" rx="5" fill="#e0e0e0"/>
  <rect x="126" y="191" width="5.3" height="10" rx="5" fill="#4a9eff"/>
  <text x="337" y="201" fill="#666" font-size="11" font-family="sans-serif">2.6%</text>
  <text x="16" y="225" fill="#333" font-size="12" font-family="sans-serif">Java</text>
  <rect x="126" y="215" width="203" height="10" rx="5" fill="#e0e0e0"/>
  <rect x="126" y="215" width="4.9" height="10" rx="5" fill="#4a9eff"/>
  <text x="337" y="225" fill="#666" font-size="11" font-family="sans-serif">2.4%</text>
  <text x="16" y="249" fill="#333" font-size="12" font-family="sans-serif">Svelte</text>
  <rect x="126" y="239" width="203" height="10" rx="5" fill="#e0e0e0"/>
  <rect x="126" y="239" width="4.5" height="10" rx="5" fill="#4a9eff"/>
  <text x="337" y="249" fill="#666" font-size="11" font-family="sans-serif">2.2%</text>
</svg>